<svg xmlns="http://www.w3.org/2000/svg" viewBox="0 0 24 24" width="300" height="300" version="1.1" xmlns:xlink="http://www.w3.org/1999/xlink" xmlns:svgjs="http://svgjs.dev/svgjs"><g width="100%" height="100%" transform="matrix(1,0,0,1,0,0)"><title/><path d="M20.85352,5.14648l-5-5A.49965.49965,0,0,0,15.5,0H5A2.00229,2.00229,0,0,0,3,2V22a2.00229,2.00229,0,0,0,2,2H19a2.00229,2.00229,0,0,0,2-2V5.5A.49965.49965,0,0,0,20.85352,5.14648ZM16,1.707,19.293,5H17a1.001,1.001,0,0,1-1-1ZM19,23H5a1.001,1.001,0,0,1-1-1V2A1.001,1.001,0,0,1,5,1H15V4a2.00229,2.00229,0,0,0,2,2h3V22A1.001,1.001,0,0,1,19,23Z" fill="#c59c47" fill-opacity="1" data-original-color="#000000ff" stroke="none" stroke-opacity="1"/><path d="M17.5,14h-7a.5.5,0,0,0,0,1h7a.5.5,0,0,0,0-1Z" fill="#c59c47" fill-opacity="1" data-original-color="#000000ff" stroke="none" stroke-opacity="1"/><path d="M6.5,6h6a.5.5,0,0,0,0-1h-6a.5.5,0,0,0,0,1Z" fill="#c59c47" fill-opacity="1" data-original-color="#000000ff" stroke="none" stroke-opacity="1"/><path d="M17.5,11H6.5a.5.5,0,0,0,0,1h11a.5.5,0,0,0,0-1Z" fill="#c59c47" fill-opacity="1" data-original-color="#000000ff" stroke="none" stroke-opacity="1"/><path d="M17.5,8H6.5a.5.5,0,0,0,0,1h11a.5.5,0,0,0,0-1Z" fill="#c59c47" fill-opacity="1" data-original-color="#000000ff" stroke="none" stroke-opacity="1"/><path d="M13.14941,18.14355a20.902,20.902,0,0,1-2.02929,1.78711,7.286,7.286,0,0,1-.24512-.72558C10.67188,18.53174,10.5127,18,10,18c-.43848,0-.63574.40088-.93457,1.00732A5.5826,5.5826,0,0,1,8.50488,20a1.181,1.181,0,0,1-.498-.32813A4.10084,4.10084,0,0,0,9,17.5,1.47532,1.47532,0,0,0,7.5,16,1.97868,1.97868,0,0,0,6,18a3.14731,3.14731,0,0,0,.67773,1.6792,4.61055,4.61055,0,0,1-.47753.4209.4998.4998,0,1,0,.5996.7998,5.26033,5.26033,0,0,0,.54493-.47754A1.935,1.935,0,0,0,8.5,21c.67578,0,1.07715-.769,1.42578-1.47656C10.15625,20.28711,10.37891,21,11,21c.167,0,.67383,0,2.85059-2.14355a.5.5,0,0,0-.70118-.7129Zm-5.80175.74317A1.7992,1.7992,0,0,1,7,18a1.28747,1.28747,0,0,1,.5-1,.47076.47076,0,0,1,.5.5A3.01035,3.01035,0,0,1,7.34766,18.88672Z" fill="#c59c47" fill-opacity="1" data-original-color="#000000ff" stroke="none" stroke-opacity="1"/></g></svg>