<svg xmlns="http://www.w3.org/2000/svg" id="Layer_1" data-name="Layer 1" viewBox="0 0 64 64" width="300" height="300" version="1.1" xmlns:xlink="http://www.w3.org/1999/xlink" xmlns:svgjs="http://svgjs.dev/svgjs"><g width="100%" height="100%" transform="matrix(1,0,0,1,0,0)"><path d="M38,22A16,16,0,1,0,22,38,16,16,0,0,0,38,22ZM28.81,34.22a17.91,17.91,0,0,1,0-24.44,14.63,14.63,0,0,1,1.69,1.13,15.89,15.89,0,0,0,0,22.18A13.55,13.55,0,0,1,28.81,34.22ZM36,22a14,14,0,0,1-4,9.77,13.91,13.91,0,0,1,0-19.54A14,14,0,0,1,36,22ZM8,22A14,14,0,0,1,22,8a13.81,13.81,0,0,1,4.91.91,19.93,19.93,0,0,0,0,26.19A14,14,0,0,1,8,22Z" fill="#c59c47" fill-opacity="1" data-original-color="#000000ff" stroke="none" stroke-opacity="1"/><rect x="21" y="40" width="2" height="4" fill="#c59c47" fill-opacity="1" data-original-color="#000000ff" stroke="none" stroke-opacity="1"/><path d="M42,2A19.9,19.9,0,0,0,32,4.7,19.81,19.81,0,0,0,22,2a20,20,0,0,0-8,38.33V47a1,1,0,0,0,1,1h6v1.72a3,3,0,0,0-1,4.05l2,3.46a3,3,0,0,0,1.83,1.4,2.93,2.93,0,0,0,.78.1A3,3,0,0,0,26,58.37l1.09,1.09A3,3,0,0,0,30,62h4a3,3,0,0,0,3-2.54L38,58.37a3,3,0,0,0,1.39.36,2.93,2.93,0,0,0,.78-.1A3,3,0,0,0,42,57.23l2-3.46a3,3,0,0,0-1-4.05V48h6a1,1,0,0,0,1-1V40.33A20,20,0,0,0,42,2ZM15.37,38.73A18,18,0,1,1,40,22,17.89,17.89,0,0,1,28.63,38.73a1,1,0,0,0-.63.93V46H16V39.66A1,1,0,0,0,15.37,38.73ZM37.08,8.9A14.19,14.19,0,0,1,42,8a14,14,0,0,1,0,28,13.7,13.7,0,0,1-4.88-.89,20,20,0,0,0,0-26.21Zm-12,47.7a1,1,0,0,1-1.36-.37l-2-3.46a1,1,0,0,1,.86-1.5,1.09,1.09,0,0,1,.26,0,1,1,0,0,1,.61.47l2,3.46a1,1,0,0,1-.37,1.37ZM34,60H30a1,1,0,0,1,0-2h4a1,1,0,0,1,0,2Zm8.3-7.23-2,3.46a1,1,0,0,1-1.36.37h0a1,1,0,0,1-.37-1.37l2-3.46a1,1,0,0,1,.61-.47,1.09,1.09,0,0,1,.26,0,1,1,0,0,1,.86,1.5ZM41,49.31c-.11,0-.23,0-.34.06a3,3,0,0,0-1.82,1.4l-2,3.46a3,3,0,0,0-.15,2.67l-.3.3A3,3,0,0,0,34,56H30a3,3,0,0,0-2.39,1.2l-.3-.3a3,3,0,0,0-.15-2.67l-2-3.46a3,3,0,0,0-1.82-1.4c-.11,0-.23,0-.34-.06V48h6a1,1,0,0,0,1-1V40.33a19.93,19.93,0,0,0,2-1,18.7,18.7,0,0,0,2,1V47a1,1,0,0,0,1,1h6Zm7.63-10.58a1,1,0,0,0-.63.93V46H36V39.66a1,1,0,0,0-.64-.93c-.48-.19-1-.41-1.45-.65.6-.45,1.17-.93,1.72-1.43A15.8,15.8,0,0,0,42,38,16,16,0,1,0,35.58,7.36,20.83,20.83,0,0,0,33.88,6,17.77,17.77,0,0,1,42,4a18,18,0,0,1,6.63,34.73Z" fill="#c59c47" fill-opacity="1" data-original-color="#000000ff" stroke="none" stroke-opacity="1"/><rect x="41" y="40" width="2" height="4" fill="#c59c47" fill-opacity="1" data-original-color="#000000ff" stroke="none" stroke-opacity="1"/></g></svg>