<svg width="1494" height="636" viewBox="0 0 1494 636" fill="none" xmlns="http://www.w3.org/2000/svg">
<g clip-path="url(#clip0_1537_2)">
<path d="M1194.76 110.829L1279.49 110.773C1305.3 110.797 1324.25 110.335 1349.96 113.031C1392.89 117.532 1431.96 137.234 1459.37 170.983C1490.09 208.802 1497.1 267.337 1491.72 314.503C1486.27 362.117 1467.02 398.156 1429.35 427.951C1381.48 464.309 1338.52 460.328 1282.46 460.271L1194.44 460.284L1194.42 445.936C1206.19 445.655 1223.91 443.249 1225 427.865C1226.09 412.531 1225.57 396.294 1225.56 380.849L1225.51 296.757L1225.52 198.006C1225.52 181.056 1225.63 164.112 1225.29 147.165C1224.86 125.991 1211.22 126.518 1194.65 125.408C1194.51 120.227 1194.52 116.004 1194.76 110.829ZM1266.39 131.992L1266.43 440.301C1310.37 440.436 1367.54 445.561 1400.9 412.694C1401.23 412.374 1401.54 412.045 1401.86 411.708C1434.25 379.919 1442.88 332.528 1443.51 288.75C1444.13 246.748 1435.29 193.05 1404.79 162.061C1379.89 136.759 1349.77 131.606 1315.82 131.461C1303.87 131.41 1289.95 131.229 1278.11 131.67C1274.32 131.78 1270.15 131.992 1266.39 131.992Z" fill="#FFFFFF"/>
<path d="M855.869 109.477C865.272 109.552 864.317 113.077 865.075 120.858C866.775 138.238 869.19 155.592 871.261 172.94L884.108 280.372L895.473 372.327C897.458 387.913 898.829 404.467 902.031 419.777C907.262 444.765 924.959 445.689 945.407 445.72C945.743 450.203 945.779 455.695 945.925 460.264L836.859 460.149L836.771 446.479C845.948 445.476 860.728 444.198 860.684 432.057C860.64 418.678 858.328 405.273 856.628 391.979C854.644 376.16 852.783 360.325 851.055 344.476L835.742 203.634C828.506 223.236 817.082 245.245 808.532 264.663C781.074 327.026 751.785 388.409 727.177 452.03C725.15 457.342 720.191 473.465 711.539 467.882C704.877 463.584 694.853 438.134 691.135 430.423L651.834 348.459L610.487 262.608C602.183 245.473 592.602 226.813 585.242 209.472C585.356 218.043 584.365 227.644 583.628 236.247C577.927 299.709 573.669 364.415 569.419 428.048C568.237 445.732 580.476 445.136 594.342 446.594L594.421 460.258C562.51 461.166 528.154 459.882 495.873 460.349C495.479 453.873 493.399 444.929 502.508 445.554C538.069 447.996 537.228 416.242 540.059 390.039L545.898 332.847L558.999 206.758C562.212 175.187 565.314 141.599 569.571 110.26L581.231 110.162C585.049 117.334 591.196 132.556 594.863 140.698C603.69 160.256 612.736 179.714 621.998 199.069L720.106 402.65C753.572 333.202 785.78 258.935 817.987 188.61L840.623 138.921C844.394 130.578 848.151 122.067 852.032 113.772C853.389 110.874 853.52 110.838 855.869 109.477Z" fill="#FFFFFF"/>
<path d="M216.728 189.811C224.538 190.941 230.944 195.114 231.732 203.394C232.161 207.913 229.969 209.623 227.218 212.812C228.051 229.515 229.648 246.585 230.566 263.337C230.893 269.306 229.367 272.304 229.079 276.269C229.078 276.279 234.631 287.235 235.272 288.597C261.114 288.513 286.94 289.835 312.638 292.558L313.393 292.047C324.66 284.469 328.87 285.601 336.164 297.139C331.709 302.595 328.958 303.643 322.823 307.103C324.268 313.86 331.739 329.821 334.892 336.979L356.04 385.315C360.28 395.016 366.709 409.02 369.744 418.697C368.889 421.341 368.036 423.81 366.877 426.343C360.506 440.416 348.808 451.386 334.353 456.842C319.206 462.419 302.468 461.784 287.786 455.077C272.052 447.82 263.349 435.618 257.539 419.829C258.522 413.049 265.747 398.538 268.53 391.379C279.382 363.471 294.418 334.566 305.116 306.947L285.736 300.877C278.348 306.614 271.121 314.659 263.828 319.623C256.311 319.473 242.517 318.206 235.197 316.966C235.484 323.971 235.679 331.236 236.205 338.208C239.613 383.41 240.977 428.687 243.905 473.919C245 490.845 246.597 507.783 247.441 524.702C239.081 538.998 230.117 560.967 221.563 573.256C220.637 574.289 219.394 575.446 218.387 576.438C213.594 573.318 193.913 533.047 189.613 525.135C189.492 518.148 190.416 508.107 190.855 500.835L193.287 458.325L200.081 317.122C191.036 318.323 181.179 319.35 172.066 319.445C165.052 315.447 157.833 307.117 150.266 302.014C143.204 303.403 137.43 305.461 130.576 307.479C134.1 316.994 139.719 328.748 143.894 338.2L165.57 387.969C168.94 395.752 176.247 411.545 178.072 418.956C177.175 423.433 175.527 427.222 173.34 431.194C166.118 444.369 153.935 454.119 139.495 458.279C107.977 467.256 75.0201 450.427 66.2319 418.316C67.7904 412.679 75.1484 396.042 77.6302 390.158C84.5086 373.778 91.5496 357.467 98.7512 341.226C103.51 330.482 109.338 318.177 113.384 307.372C107.729 303.918 93.5856 293.398 108.69 287.583C112.725 286.029 117.873 290.276 121.186 292.924C149.027 291.052 170.093 288.627 199.047 288.69C201.392 284.325 204.099 280.577 206.362 276.044C205.97 274.95 205.653 273.783 205.169 272.73C203.506 269.103 207.805 219.114 207.971 210.93L202.969 204.474C205.989 197.757 208.733 190.847 216.728 189.811ZM316.782 412.791C328.725 413.002 346.112 413.173 357.854 415.307C353.841 408.039 348.504 394.296 345.114 386.311C337.712 368.799 330.159 351.351 322.456 333.97C321.131 331.011 314.372 315.742 313.061 314.051C298.273 347.691 283.788 381.464 269.609 415.365C283.896 412.964 302.197 412.651 316.782 412.791ZM77.9679 415.344C90.7246 413.047 110.352 412.702 123.466 412.781C135.796 412.802 153.591 413.107 165.9 415.002C156.803 395.337 148.225 373.995 139.558 353.998C134.801 343.02 125.839 324.18 122.109 313.37C107.358 347.09 93.0436 381.968 77.9679 415.344ZM359.489 423.041L360.394 421.982C357.676 420.718 333.964 423.333 328.616 423.48C315.133 423.772 301.645 423.551 288.178 422.822C281.917 422.432 271.514 421.205 265.725 421.114C267.975 423.934 279.713 425.299 283.896 425.784C310.591 428.876 333.192 427.375 359.489 423.041ZM168.33 422.785L169.028 421.675C166.371 420.922 142.928 423.106 138.298 423.286C129.205 423.552 120.108 423.621 111.012 423.494C102.874 423.4 96.133 422.993 88.0262 422.174C84.8222 421.85 76.676 420.912 74.106 421.034C89.1766 430.809 148.481 426.957 167.237 423.028C167.603 422.952 167.967 422.872 168.33 422.785Z" fill="#C59C47"/>
<path d="M234.742 212.477L401.195 212.365C401.975 226.317 399.884 246.903 400.514 262.734C402.766 319.34 410.669 372.512 435.482 423.717C433.435 430.74 431.054 437.663 428.348 444.46C398.587 520.129 331.567 578.656 261.322 616.196C247.753 623.448 233.691 629.634 219.6 635.779C127.534 602.893 27.4666 520.832 1.05273 423.364C25.7182 373.395 33.3309 318.612 34.3475 263.278C34.4842 255.837 33.6057 217.659 34.9775 213.402L36.9834 212.476L200.531 212.442C200.683 221.805 200.053 232.111 199.648 241.547C157.092 240.511 109.959 241.401 67.1745 241.478C66.4934 297.657 60.8669 374.565 33.6499 424.644C34.0422 426.308 34.5012 427.956 35.0258 429.584C58.2234 501.308 129.535 558.282 194.076 591.308C202.227 595.48 210.472 599.066 218.575 603.187C297.696 561.858 372.41 514.376 403.765 426.027C379.861 383.296 366.797 289.972 369.667 241.427L273.377 241.452L235.582 241.515C235.766 233.134 234.919 221.335 234.742 212.477Z" fill="#C59C47"/>
<path d="M970.188 110.611C998.821 111.395 1028.12 110.224 1056.74 110.768C1087.32 111.534 1116.96 107.629 1146.4 118C1194.51 134.943 1210.27 188.83 1193.9 234.285C1177.03 281.137 1119.62 307.022 1072.94 290.925C1067.82 289.16 1057.19 284.94 1054.84 279.831C1054.86 277.403 1054.51 278.174 1055.9 276.718C1058.84 276.499 1068.47 277.683 1073.09 277.674C1095.37 277.904 1119.97 271.307 1136.18 255.306C1162.28 229.53 1162.45 174.709 1136.45 148.708C1116.92 129.157 1089.52 133.236 1064.23 133.42L1044.6 133.499C1045.47 200.249 1044.57 269.364 1044.58 336.311L1044.6 392.627C1044.6 430.774 1037.37 445.635 1082.15 446.174L1082.33 460.241L974.857 460.341C975.061 455.682 975.141 450.893 975.273 446.22C1010.62 443.344 1005.94 428.773 1005.96 398.852L1005.49 227.412L1005.36 174.715C1005.33 166.193 1006.06 155.007 1004.86 146.741C1001.9 126.365 985.544 126.045 970.29 126.137L970.188 110.611Z" fill="#1A1A1A"/>
<path d="M496.156 501.922C523.013 501.273 552.616 501.863 579.651 501.857L741.886 501.86L1206.97 501.986L1386.7 502.036C1397.52 502.025 1462.84 500.787 1467.64 502.59C1468.9 504.663 1468.45 504.43 1468.29 507.322C1448.3 507.833 1426.99 507.496 1406.93 507.5L1295.42 507.482L965.585 507.517L656.146 507.474L554.22 507.485C535.544 507.487 515.368 507.856 496.784 507.312C495.719 505.561 496.142 504.281 496.156 501.922Z" fill="#1A1A1A"/>
<path d="M914.462 540.613C935.268 538.604 953.767 553.829 955.795 574.629C957.823 595.43 942.614 613.94 921.816 615.987C900.981 618.038 882.438 602.806 880.41 581.978C878.374 561.15 893.628 542.623 914.462 540.613ZM923.012 609.501C956.087 600.037 950.529 544.049 913.441 547.189C878.484 557.096 888.288 615.124 923.012 609.501Z" fill="#1A1A1A"/>
<path d="M700.284 543.054C709.642 543.437 720.559 547.417 726.695 554.006C746.985 575.794 733.577 609.881 704.008 612.883C699.354 613.356 695.671 613.379 691.194 613.369C680.807 613.393 670.223 613.553 659.873 612.876C662.728 611.462 670.675 609.289 671.328 606.522C673.393 597.762 673.208 556.462 671.63 549.928C669.408 547.077 664.327 545.263 660.814 543.652C671.787 542.819 688.732 543.17 700.284 543.054ZM682.928 607.501C693.199 608.017 700.857 608.949 710.552 604.928C725.149 594.065 729.565 572.92 718.537 558.191C714.401 552.741 708.228 549.206 701.434 548.397C699.734 548.177 695.391 547.953 693.711 548.107L682.703 548.453C682.757 566.809 682.171 589.377 682.928 607.501Z" fill="#1A1A1A"/>
<path d="M1441.08 541.277C1441.63 541.369 1443.5 542.043 1443.66 542.407C1452.43 562.251 1460.33 582.5 1469.25 602.281C1472.34 609.136 1476.59 610.025 1482.85 613.074C1478.18 613.372 1456.25 614.792 1453.65 611.922C1454.72 609.85 1458.07 607.881 1460.37 607.881C1458.28 601.188 1456.11 596.386 1453.29 590.018L1440.56 590.197L1427.47 590.118C1425.01 596.105 1422.6 601.825 1420.58 607.99L1429.93 612.894C1420.23 613.76 1408.31 613.498 1398.53 613.038C1402.77 611.27 1408.34 609.653 1411.48 606.25C1417.1 600.179 1435.75 552.81 1441.08 541.277ZM1429.94 584.119C1434.25 584.034 1438.82 583.864 1443.12 583.881L1451.19 584.192C1449.61 580.329 1442.41 562.264 1440.46 559.274L1429.94 584.119Z" fill="#1A1A1A"/>
<path d="M590.097 541.513C591.55 541.992 592.37 542.141 593.074 543.7C599.891 558.784 605.888 574.333 612.52 589.499C615.213 595.656 617.784 603.126 621.503 608.581C623.517 609.379 628.223 610.893 629.301 612.397C626.979 614.307 603.031 613.185 598.428 612.917C601.526 610.96 607.307 609.491 607.426 605.49C607.526 602.158 603.644 593.583 602.493 590.204L590.706 590.254L577.11 590.072C574.611 596.16 572.304 601.516 570.532 607.887C572.988 608.998 575.552 609.761 576.573 612.046C573.385 614.654 555.238 613.353 549.818 613.264C552.162 611.756 559.313 608.5 560.338 606.974C572.276 589.191 580.119 560.17 590.097 541.513ZM579.695 584.235C583.476 584.097 588.104 583.817 591.801 583.962L599.964 584.088C597.577 578.53 592.332 564.185 589.604 559.863C586.415 568.033 583.112 576.158 579.695 584.235Z" fill="#1A1A1A"/>
<path d="M1142.59 541.344C1148.37 543.421 1166.7 599.59 1173.52 607.287C1175.34 609.347 1178.82 609.834 1181.2 611.116L1181.34 612.498C1178.97 613.952 1157.02 614.633 1154.61 611.722C1156.29 609.312 1158.2 608.989 1161.13 607.608C1159.59 602.102 1156.63 595.469 1154.4 590.079L1145.27 590.232L1129.81 590.109C1127.39 594.663 1124.02 603.457 1122.68 608.343L1131.39 612.859C1122.16 613.788 1111.12 613.39 1101.85 612.911C1105.59 611.249 1109.28 609.488 1112.92 607.627C1118.55 599.604 1137.42 553.175 1142.59 541.344ZM1131.98 584.09L1144.03 583.94L1152.37 584.201C1150.08 578.873 1144.24 564.223 1141.79 559.836C1138.94 568.25 1135.51 575.942 1131.98 584.09Z" fill="#1A1A1A"/>
<path d="M1257.98 541.475C1268.77 541.809 1284.48 543.995 1287.12 556.919C1287.73 559.956 1288.29 564.576 1286.61 567.239L1285.26 567.433C1283.2 565.813 1282.5 562.336 1281.23 559.738C1278.49 554.174 1273.58 549.976 1267.66 548.121C1260.76 545.883 1253.25 546.582 1246.88 550.053C1218.11 565.723 1235.89 628.356 1276.88 604.672C1285.1 597.208 1284.64 588.03 1289.23 585.836C1290.38 587.165 1290.19 588.198 1290.38 589.838C1292.27 606.163 1277.04 614.011 1263.15 614.951C1241.73 616.4 1222.37 602.974 1221.17 580.597C1220.32 564.523 1228.06 549.838 1243.59 544.035C1248.83 542.082 1252.4 541.772 1257.98 541.475Z" fill="#1A1A1A"/>
<path d="M1031.36 542.174C1040.69 540.884 1059.54 542.237 1064.18 552.2C1065.72 555.531 1069.37 566.114 1065.04 568.038C1064.17 567.459 1064 567.628 1063.77 566.62C1060.78 552.244 1044.19 543.579 1030.84 547.873C1007.1 555.502 1005.36 597.623 1028.25 607.519C1036.46 611.068 1041.76 609.946 1049.48 607.359C1064.37 598.277 1059.41 589.854 1065.44 583.693L1066.44 584.02C1068.49 589.022 1067.61 599.457 1064.11 603.692C1052.41 617.843 1028.96 618.269 1014.64 607.913C1006.94 602.326 1001.8 593.877 1000.37 584.464C997.092 563.201 1010.14 545.479 1031.36 542.174Z" fill="#1A1A1A"/>
<path d="M818.775 543.409C822.925 543.33 844.599 542.582 847.393 543.963L847.473 545.548C845.27 546.535 843.22 547.433 841.411 549.064C831.088 558.374 816.696 608.534 808.766 613.78C808.43 613.63 808.029 613.45 807.562 613.24C798.655 595.626 788.369 565.152 778.674 548.743C774.531 547.053 772.197 547.866 770.431 543.556C777.726 542.838 793.571 543.354 801.245 543.542C797.984 545.3 793.717 547.084 790.259 548.627C793.228 558.554 805.644 586.927 810.276 597.124C813.843 589.581 829.724 555.563 829.25 549.234C827.682 547.217 821.481 544.689 818.775 543.409Z" fill="#1A1A1A"/>
<path d="M1339.53 543.613C1345.48 542.83 1362.98 543.329 1369.42 543.451C1368.38 544.071 1359.8 548.33 1359.69 549.133C1357.13 566.793 1356.14 591.111 1360.49 608.495C1360.72 609.43 1364.58 610.559 1366.27 612.024L1365.96 613.092L1363.6 613.374C1354.03 613.399 1344.7 613.461 1335.14 613.054C1338.06 611.595 1346.39 609.565 1346.85 605.791C1348.79 589.726 1347.3 572.754 1347.7 556.568C1348.01 543.953 1342.72 549.388 1339.53 543.613Z" fill="#1A1A1A"/>
<path d="M217.494 0H218.124C225.275 9.28837 243.251 35.996 248.823 45.9134C243.747 56.5478 239.42 67.6964 234.465 78.5139C250.937 71.9759 269.824 69.7038 281.921 85.5821C268.662 93.0631 261.496 106.165 250.94 117.052C261.083 118.445 272.447 120.979 282.732 122.763C304.39 126.495 326.074 130.085 347.78 133.533C347.923 114.06 339.96 111.207 331.011 96.7369C330.803 96.4007 331.635 95.5626 332.02 95.0645C344.812 90.2493 368.507 97.3204 377.552 107.304C379.536 103.556 383.65 91.239 385.945 89.9218C393.196 85.7608 432.458 81.8237 439.219 81.8821C431.865 89.7555 424.25 100.643 417.966 109.481L389.371 149.974C383.941 157.762 377.568 167.61 371.753 174.872L134.843 174.735C112.371 174.656 89.6919 175.06 67.2639 174.588C58.6843 164.18 48.0292 148.362 40.0581 137.089C26.9915 118.511 13.7075 100.086 0.208984 81.8186C10.9154 81.8354 38.1776 85.6791 49.1486 88.5922C54.4213 89.9925 57.3932 101.613 59.9391 107.646C74.2741 96.063 94.1119 90.4374 111.919 96.3547C98.2853 108.734 93.7245 116.006 91.0167 133.92C120.226 128.568 155.685 124.017 184.184 117.094C174.473 105.656 163.97 93.3111 151.022 85.8046C168.352 71.4375 179.266 70.473 200.367 78.1828C195.667 67.4198 191.15 56.2966 186.516 45.4639C196.916 30.7974 207.18 14.9036 217.494 0Z" fill="#C59C47"/>
</g>
<defs>
<clipPath id="clip0_1537_2">
<rect width="1494" height="636" fill="white"/>
</clipPath>
</defs>
</svg>
