<svg width="687" height="256" viewBox="0 0 687 256" fill="none" xmlns="http://www.w3.org/2000/svg">
<path d="M25.2785 255L11.9394 210.16H16.6363L25.7169 240.972C26.3431 243.164 26.9068 245.418 27.4704 248.362C28.2219 245.105 28.8481 243.164 29.537 240.972L39.3065 210.16H44.0034L53.7729 240.972C54.4618 243.226 55.088 245.481 55.7769 248.362C56.4658 244.917 57.0294 242.725 57.5304 241.035L66.7989 210.16H71.3705L57.9061 255H53.6476L41.6236 216.924L29.5996 255H25.2785ZM137.785 255H110.919V210.16H137.723V214.294H115.428V230.451H135.656V234.522H115.428V250.867H137.785V255ZM180.132 255V210.16H196.54C205.182 210.16 210.505 214.544 210.505 221.746C210.505 227.007 208.188 230.576 203.554 232.392C208.752 234.083 211.382 237.715 211.382 243.226C211.382 250.428 205.996 255 197.479 255H180.132ZM196.477 214.168H184.641V230.576H197.041C202.677 230.576 205.871 227.445 205.871 222.122C205.871 217.112 202.489 214.168 196.477 214.168ZM197.479 234.522H184.641V250.929H197.479C203.366 250.929 206.81 247.861 206.81 242.663C206.81 237.59 203.303 234.522 197.479 234.522ZM316.921 255H303.268V210.16H316.795C330.322 210.16 339.34 219.178 339.34 232.58C339.34 245.982 330.385 255 316.921 255ZM316.608 214.294H307.777V250.867H316.733C327.692 250.867 334.706 243.727 334.706 232.58C334.706 221.37 327.692 214.294 316.608 214.294ZM407.542 255H380.676V210.16H407.48V214.294H385.185V230.451H405.413V234.522H385.185V250.867H407.542V255ZM447.196 221.809C447.196 214.294 453.208 209.346 462.226 209.346C470.305 209.346 475.628 213.855 476.317 221.37H471.745C471.244 216.298 467.8 213.417 462.164 213.417C455.839 213.417 451.705 216.673 451.705 221.746C451.705 225.691 454.022 228.196 458.719 229.386L466.422 231.265C473.436 232.956 477.068 236.964 477.068 243.039C477.068 250.804 471.056 255.752 461.788 255.752C453.083 255.752 447.196 251.18 446.633 243.853H451.267C451.517 248.55 455.651 251.618 461.788 251.618C468.364 251.618 472.559 248.424 472.559 243.289C472.559 239.281 470.305 236.651 465.483 235.524L457.905 233.645C450.891 231.954 447.196 227.946 447.196 221.809ZM522.877 210.16V255H518.368V210.16H522.877ZM585.759 213.667C575.425 213.667 568.912 221.308 568.912 232.768C568.912 244.416 575.801 251.493 585.884 251.493C593.399 251.493 600.726 247.861 600.726 237.089V234.772H584.506V230.764H604.984V255.063H601.415L600.976 247.923C598.597 252.37 592.96 255.752 585.696 255.752C572.983 255.752 564.216 246.608 564.216 232.768C564.216 219.053 572.983 209.409 585.821 209.409C595.278 209.409 602.605 214.795 604.358 222.936H599.473C597.595 216.799 592.334 213.667 585.759 213.667ZM651.64 255H647.131V210.16H651.703L676.377 247.485V210.16H680.823V255H676.377L651.64 217.675V255Z" fill="#121212"/>
<path d="M72.5154 174.625C71.7237 174.625 71.0111 174.387 70.3778 173.912C69.7444 173.437 69.4277 172.408 69.4277 170.825L67.0526 25.9429C67.0526 24.8345 66.6568 24.2804 65.8651 24.2804C65.2317 24.2804 64.7567 24.7554 64.44 25.7054L29.5259 156.574C28.4175 161.008 28.3383 164.412 29.2884 166.787C30.3967 169.004 32.851 170.429 36.6512 171.062L39.5013 171.537C41.4014 171.696 42.3515 172.566 42.3515 174.15C42.3515 176.05 40.8472 177 37.8388 177H4.34969C1.97458 177 0.787022 176.208 0.787022 174.625C0.787022 172.883 2.05375 171.854 4.5872 171.537L7.91236 171.062C12.1876 170.429 15.3544 169.004 17.4128 166.787C19.4712 164.412 21.0546 161.008 22.163 156.574L58.0272 21.6677C58.8189 18.3426 58.8189 16.1258 58.0272 15.0174C57.2355 13.909 55.0979 13.0382 51.6144 12.4048L47.5767 11.6923C45.0433 11.2172 43.7765 10.188 43.7765 8.60461C43.7765 6.86287 45.2016 5.992 48.0517 5.992H76.5531C81.145 5.992 83.4409 8.3671 83.4409 13.1173L84.866 131.16C84.866 132.269 85.1826 132.902 85.816 133.06C86.6077 133.06 87.2411 132.585 87.7161 131.635L145.194 11.9298C147.094 7.97125 150.102 5.992 154.219 5.992H182.958C184.858 5.992 185.808 6.7837 185.808 8.3671C185.808 9.95051 184.462 10.9797 181.77 11.4548L176.07 12.4048C172.587 13.0382 170.212 13.909 168.945 15.0174C167.678 16.1258 166.649 18.3426 165.857 21.6677L138.306 161.324C137.673 164.649 137.673 166.866 138.306 167.975C139.098 169.083 141.077 169.954 144.244 170.587L148.281 171.3C149.865 171.458 150.894 171.854 151.369 172.487C151.844 172.962 152.082 173.517 152.082 174.15C152.082 176.05 150.657 177 147.806 177H105.529C103.313 177 102.204 176.208 102.204 174.625C102.204 173.041 103.471 172.012 106.004 171.537L111.705 170.587C115.188 169.954 117.563 169.083 118.83 167.975C120.255 166.866 121.284 164.649 121.918 161.324L148.756 26.6555C149.073 25.5471 148.836 24.9137 148.044 24.7554C147.252 24.4387 146.619 24.7554 146.144 25.7054L76.7906 170.825C76.1572 172.408 75.4447 173.437 74.653 173.912C74.0196 174.387 73.3071 174.625 72.5154 174.625ZM190.093 179.138C184.392 179.138 179.959 176.683 176.792 171.775C173.625 166.866 172.042 159.662 172.042 150.161C172.042 141.136 173.309 132.11 175.842 123.085C178.375 113.901 181.859 105.192 186.292 96.9588C190.726 88.725 195.714 81.4414 201.256 75.1077C206.956 68.7741 212.894 63.7864 219.069 60.1445C225.403 56.3444 231.657 54.4443 237.832 54.4443C240.841 54.4443 243.691 55.0776 246.383 56.3444C249.075 57.4527 251.291 59.2737 253.033 61.8071C253.983 63.2322 254.933 63.9447 255.883 63.9447C256.833 63.9447 257.783 63.2322 258.733 61.8071C260.475 59.2737 261.9 57.6902 263.009 57.0569C264.117 56.2652 265.146 55.8693 266.096 55.8693C268.155 55.8693 268.946 56.9777 268.471 59.1945L247.333 150.161C244.958 160.453 246.541 165.599 252.083 165.599C255.725 165.599 258.971 163.145 261.821 158.237C264.829 153.328 267.838 145.728 270.846 135.436C271.321 133.694 272.351 132.823 273.934 132.823C275.042 132.823 275.755 133.298 276.072 134.248C276.388 135.198 276.388 136.306 276.072 137.573C273.063 152.457 269.026 163.145 263.959 169.637C258.892 175.971 252.796 179.138 245.67 179.138C239.495 179.138 235.061 176.525 232.37 171.3C229.836 166.074 229.599 158.949 231.657 149.924L234.745 136.861C235.061 135.752 234.824 135.119 234.032 134.961C233.399 134.802 232.845 135.198 232.37 136.148C223.661 152.141 215.902 163.304 209.094 169.637C202.443 175.971 196.11 179.138 190.093 179.138ZM196.03 167.025C199.831 167.025 204.027 164.729 208.619 160.137C213.21 155.545 217.723 149.607 222.157 142.323C226.749 135.04 230.945 127.202 234.745 118.81C238.545 110.418 241.553 102.342 243.77 94.5836C246.145 86.8249 247.333 80.2538 247.333 74.8702C247.333 65.2114 243.929 60.382 237.12 60.382C233.003 60.382 228.649 62.2821 224.057 66.0823C219.465 69.7241 215.031 74.7119 210.756 81.0455C206.639 87.3791 202.839 94.5836 199.356 102.659C196.03 110.576 193.339 118.889 191.28 127.598C189.222 136.148 188.193 144.54 188.193 152.774C188.193 158.316 188.826 162.116 190.093 164.174C191.518 166.074 193.497 167.025 196.03 167.025ZM329.899 33.3058C326.891 33.3058 324.358 32.2766 322.299 30.2181C320.399 28.0014 319.449 25.3887 319.449 22.3803C319.449 18.1051 320.716 14.7007 323.249 12.1673C325.941 9.63383 328.949 8.3671 332.275 8.3671C335.441 8.3671 338.054 9.39632 340.112 11.4548C342.329 13.3548 343.438 15.8883 343.438 19.0551C343.438 23.4886 342.092 26.9721 339.4 29.5056C336.708 32.039 333.541 33.3058 329.899 33.3058ZM310.424 179.375C305.198 179.375 301.477 177.475 299.261 173.675C297.044 169.716 296.965 163.304 299.023 154.436L316.599 79.1454C317.391 75.6619 317.47 72.9701 316.836 71.07C316.361 69.0116 314.936 67.9824 312.561 67.9824C309.711 67.9824 306.544 70.12 303.061 74.3952C299.736 78.5121 295.935 86.4291 291.66 98.1463C291.027 100.205 289.918 101.234 288.335 101.234C285.96 101.234 285.327 99.8089 286.435 96.9588C289.918 86.0332 293.56 77.4828 297.36 71.3076C301.319 65.1323 305.277 60.7779 309.236 58.2444C313.195 55.711 316.836 54.4443 320.162 54.4443C325.703 54.4443 329.583 56.4235 331.8 60.382C334.016 64.1822 334.096 70.5159 332.037 79.3829L314.461 154.674C313.67 158.157 313.511 160.928 313.986 162.987C314.62 164.887 316.124 165.837 318.499 165.837C321.349 165.837 324.437 163.779 327.762 159.662C331.245 155.386 335.125 147.39 339.4 135.673C340.033 133.615 341.142 132.585 342.725 132.585C345.1 132.585 345.734 134.01 344.625 136.861C341.3 147.628 337.579 156.178 333.462 162.512C329.504 168.687 325.545 173.041 321.587 175.575C317.628 178.108 313.907 179.375 310.424 179.375ZM380.51 179.138C372.118 179.138 365.388 175.892 360.321 169.4C355.254 162.749 352.721 153.407 352.721 141.373C352.721 130.923 354.542 120.552 358.184 110.259C361.984 99.9672 366.892 90.6251 372.909 82.2331C378.926 73.841 385.497 67.1115 392.623 62.0446C399.906 56.9777 406.953 54.4443 413.761 54.4443C421.203 54.4443 426.508 56.2652 429.675 59.907C433 63.3905 434.662 68.1407 434.662 74.1577C434.662 81.283 432.129 88.4084 427.062 95.5337C422.153 102.501 415.186 108.755 406.161 114.297C397.294 119.839 386.843 123.956 374.809 126.648C371.326 127.439 369.505 129.419 369.347 132.585C369.188 133.694 369.109 134.881 369.109 136.148C369.109 137.256 369.109 138.365 369.109 139.473C369.109 148.499 370.613 155.307 373.622 159.899C376.789 164.491 381.064 166.787 386.448 166.787C392.464 166.787 398.244 164.016 403.786 158.474C409.486 152.932 414.236 145.094 418.037 134.961C418.512 133.535 419.462 132.823 420.887 132.823C421.837 132.823 422.391 133.219 422.549 134.01C422.866 134.802 422.866 135.752 422.549 136.861C417.482 150.795 411.307 161.324 404.023 168.45C396.898 175.575 389.06 179.138 380.51 179.138ZM371.722 117.622C371.405 118.731 371.564 119.681 372.197 120.472C372.989 121.106 373.939 121.264 375.047 120.947C384.864 118.256 393.098 114.218 399.748 108.834C406.398 103.292 411.386 97.1171 414.711 90.3084C418.195 83.4998 419.937 76.8495 419.937 70.3575C419.937 63.7072 417.324 60.382 412.099 60.382C407.507 60.382 402.519 63.0738 397.136 68.4574C391.752 73.841 386.764 80.8872 382.172 89.5959C377.58 98.3046 374.097 107.647 371.722 117.622ZM459.994 179.138C454.769 179.138 449.227 178.346 443.369 176.762C437.668 175.179 433.314 173.2 430.305 170.825C429.197 169.875 428.722 168.45 428.88 166.55L434.106 135.436C434.422 133.377 435.372 132.348 436.956 132.348C438.698 132.348 439.568 133.456 439.568 135.673L440.043 147.074C440.36 156.099 442.498 162.749 446.456 167.025C450.573 171.141 455.561 173.2 461.419 173.2C466.486 173.2 470.841 171.616 474.483 168.45C478.124 165.124 479.945 160.295 479.945 153.961C479.945 150.32 479.391 146.994 478.283 143.986C477.174 140.819 475.433 137.494 473.057 134.01C470.682 130.369 467.436 126.014 463.32 120.947C457.936 113.98 453.898 108.043 451.206 103.134C448.673 98.0671 447.406 92.8419 447.406 87.4583C447.406 77.4828 450.494 69.4866 456.669 63.4697C463.003 57.4527 470.999 54.4443 480.658 54.4443C484.933 54.4443 489.05 55.0776 493.008 56.3444C497.125 57.6111 500.53 59.5112 503.221 62.0446C504.646 63.153 505.121 64.5781 504.646 66.3198L497.996 98.1463C497.521 100.205 496.571 101.234 495.146 101.234C493.721 101.234 492.85 100.126 492.533 97.9088L491.821 86.5083C491.187 77.0078 489.921 70.1992 488.021 66.0823C486.279 61.9654 482.558 59.907 476.858 59.907C471.791 59.907 467.674 61.6488 464.507 65.1323C461.34 68.6158 459.757 72.8118 459.757 77.7204C459.757 82.9456 461.182 87.775 464.032 92.2085C466.882 96.4837 470.762 101.946 475.67 108.597C482.162 117.147 486.516 123.956 488.733 129.023C491.108 134.09 492.296 139.236 492.296 144.461C492.296 151.111 490.792 157.049 487.783 162.274C484.933 167.5 481.054 171.616 476.145 174.625C471.237 177.633 465.853 179.138 459.994 179.138ZM579.642 179.138C571.567 179.138 564.996 172.566 559.929 159.424L546.866 124.985C545.282 121.185 543.303 119.285 540.928 119.285C538.553 119.285 536.495 121.264 534.753 125.223C533.169 128.706 531.428 133.456 529.528 139.473C527.786 145.332 526.123 151.745 524.54 158.712L520.977 174.387C520.502 176.129 519.394 177 517.652 177H508.389C506.172 177 505.301 175.971 505.776 173.912L540.453 24.9929C541.086 22.3011 541.086 20.401 540.453 19.2926C539.82 18.0259 538.395 17.3134 536.178 17.155L529.053 16.4425C526.677 16.1258 525.648 15.0966 525.965 13.3548C526.282 11.9298 527.39 11.0589 529.29 10.7422C536.099 9.63383 541.561 8.36711 545.678 6.94204C549.795 5.51697 552.962 3.85439 555.179 1.9543C556.446 1.00426 557.554 0.529239 558.504 0.529239C560.562 0.529239 561.354 1.71679 560.879 4.0919L538.791 98.1463C538.632 99.2547 538.87 99.8881 539.503 100.046C540.136 100.205 540.691 99.8089 541.166 98.8588L549.003 84.8457C560.404 64.5781 573.23 54.4443 587.48 54.4443C592.864 54.4443 597.139 55.8693 600.306 58.7195C603.473 61.5696 605.056 65.4489 605.056 70.3575C605.056 78.1162 601.256 85.8749 593.656 93.6336C586.214 101.392 576.396 107.726 564.204 112.634C560.404 114.06 559.296 116.593 560.879 120.235L574.655 155.386C576.238 159.345 577.822 162.195 579.405 163.937C580.988 165.52 582.968 166.312 585.343 166.312C588.985 166.312 591.755 164.095 593.656 159.662C595.556 155.07 597.218 147.153 598.643 135.911C598.96 133.852 599.91 132.823 601.493 132.823C603.235 132.823 604.027 134.406 603.869 137.573C603.077 150.874 600.543 161.166 596.268 168.45C592.151 175.575 586.609 179.138 579.642 179.138ZM543.303 108.597C542.67 110.022 542.591 111.13 543.066 111.922C543.699 112.555 544.728 112.714 546.153 112.397C559.296 109.072 569.904 103.609 577.98 96.0087C586.055 88.4084 590.093 80.0163 590.093 70.8325C590.093 64.8156 587.797 61.8071 583.205 61.8071C577.822 61.8071 571.567 66.0031 564.442 74.3952C557.316 82.6289 550.27 94.0294 543.303 108.597ZM658.797 33.3058C655.788 33.3058 653.255 32.2766 651.196 30.2181C649.296 28.0014 648.346 25.3887 648.346 22.3803C648.346 18.1051 649.613 14.7007 652.146 12.1673C654.838 9.63383 657.847 8.3671 661.172 8.3671C664.339 8.3671 666.951 9.39632 669.01 11.4548C671.226 13.3548 672.335 15.8883 672.335 19.0551C672.335 23.4886 670.989 26.9721 668.297 29.5056C665.605 32.039 662.439 33.3058 658.797 33.3058ZM639.321 179.375C634.096 179.375 630.375 177.475 628.158 173.675C625.941 169.716 625.862 163.304 627.92 154.436L645.496 79.1454C646.288 75.6619 646.367 72.9701 645.734 71.07C645.259 69.0116 643.833 67.9824 641.458 67.9824C638.608 67.9824 635.441 70.12 631.958 74.3952C628.633 78.5121 624.833 86.4291 620.557 98.1463C619.924 100.205 618.816 101.234 617.232 101.234C614.857 101.234 614.224 99.8089 615.332 96.9588C618.816 86.0332 622.457 77.4828 626.258 71.3076C630.216 65.1323 634.175 60.7779 638.133 58.2444C642.092 55.711 645.734 54.4443 649.059 54.4443C654.601 54.4443 658.48 56.4235 660.697 60.382C662.914 64.1822 662.993 70.5159 660.934 79.3829L643.358 154.674C642.567 158.157 642.408 160.928 642.883 162.987C643.517 164.887 645.021 165.837 647.396 165.837C650.246 165.837 653.334 163.779 656.659 159.662C660.143 155.386 664.022 147.39 668.297 135.673C668.93 133.615 670.039 132.585 671.622 132.585C673.997 132.585 674.631 134.01 673.522 136.861C670.197 147.628 666.476 156.178 662.359 162.512C658.401 168.687 654.442 173.041 650.484 175.575C646.525 178.108 642.804 179.375 639.321 179.375Z" fill="#121212"/>
</svg>
