<svg id="Layer_1" enable-background="new 0 0 512 512" viewBox="0 0 512 512" xmlns="http://www.w3.org/2000/svg" width="300" height="300" version="1.1" xmlns:xlink="http://www.w3.org/1999/xlink" xmlns:svgjs="http://svgjs.dev/svgjs"><g width="100%" height="100%" transform="matrix(1,0,0,1,0,0)"><path d="m457.325 347.755c-11.459-10.154-26.384-12.871-42.021-7.653l-81.468 27.182c-4.048-10.442-12.846-18.443-23.987-21.296-35.5-9.108-57.146-16.619-71.469-21.59-32.776-11.372-34.865-11.177-74.5 7.004-12.031 5.519-28.142 12.907-50.244 22.239l-7.206-17.42c-1.475-3.564-5.556-5.259-9.126-3.787l-53.895 22.266c-1.713.708-3.075 2.067-3.786 3.78-.711 1.712-.712 3.636-.003 5.35l59.299 143.352c1.114 2.692 3.716 4.318 6.46 4.318.889 0 1.792-.171 2.666-.531l53.895-22.265c1.712-.708 3.075-2.067 3.786-3.78.711-1.712.712-3.636.003-5.35l-6.162-14.896 28.281-14.968c38.667 14.807 67.896 21.488 94.764 21.487 3.763 0 7.486-.131 11.176-.39 29.185-2.043 55.086-12.176 87.878-25.004 17.549-6.865 37.439-14.646 61.346-22.621 15.643-5.221 25.948-16.364 29.013-31.374 3.26-15.96-2.51-33.252-14.7-44.053zm-348.161 147.631-53.957-130.437 40.978-16.93 47.948 115.913c.048.127.1.252.156.377l5.852 14.147zm349.168-106.373c-1.432 7.012-6.021 16.332-19.744 20.912-24.244 8.088-44.31 15.938-62.014 22.863-66.296 25.936-96.554 37.773-186.648 2.744-1.891-.735-4.008-.613-5.801.336l-29.925 15.837-35.222-85.149c22.343-9.432 38.596-16.886 50.729-22.452 18.378-8.43 27.603-12.662 35.096-13.392 7.147-.695 13.989 1.681 28.995 6.889 14.541 5.046 36.516 12.672 72.58 21.924 8.336 2.135 14.495 9.084 15.691 17.701.001.009.004.018.005.027.362 2.677.204 5.364-.475 7.999-1.396 5.443-4.854 10.029-9.737 12.915s-10.573 3.707-16.018 2.309l-74.548-19.125c-3.738-.955-7.546 1.294-8.506 5.032-.959 3.739 1.294 7.547 5.032 8.506l74.548 19.125c2.894.742 5.826 1.109 8.742 1.109 6.214 0 12.352-1.668 17.862-4.925 8.098-4.788 13.838-12.413 16.16-21.465.639-2.476.991-4.987 1.077-7.51l83.516-27.865c13.715-4.577 22.976.114 28.329 4.856 8.391 7.435 12.519 19.812 10.276 30.799zm-333.604-176.78h62.976v42.918c0 3.86 3.129 6.988 6.988 6.988h28.473c9.654 24.781 28.459 46.075 56.731 64.398 1.156.75 2.478 1.125 3.8 1.125s2.644-.375 3.8-1.125c28.273-18.323 47.078-39.618 56.732-64.398h28.473c3.86 0 6.988-3.129 6.988-6.988v-42.918h62.977c3.86 0 6.988-3.129 6.988-6.988v-69.031c0-26.926-21.893-48.831-48.803-48.831h-2.87c9.619-9.186 15.63-22.12 15.63-36.439 0-27.815-22.616-50.443-50.416-50.443-13.232 0-25.735 5.081-35.205 14.307-6.202 6.043-10.647 13.434-13.079 21.523-8.907-6.058-19.654-9.604-31.215-9.604s-22.306 3.55-31.212 9.613c-2.432-8.092-6.877-15.486-13.082-21.532-9.47-9.226-21.973-14.307-35.205-14.307-27.799 0-50.416 22.629-50.416 50.443 0 14.319 6.011 27.253 15.63 36.439h-2.842c-26.925 0-48.831 21.905-48.831 48.831v69.031c.002 3.859 3.131 6.988 6.99 6.988zm158.969 100.052c-36.965-25.185-54.737-56.144-54.224-94.454 13.901-12.857 31.675-19.793 54.224-21.174 22.549 1.381 40.323 8.316 54.224 21.174.514 38.309-17.258 69.269-54.224 94.454zm82.016-64.122h-17.102c2.566-10.609 3.635-21.806 3.207-33.636-.064-1.774-.801-3.456-2.06-4.707-16.557-16.438-38.646-25.569-65.655-27.14-.269-.016-.542-.016-.811 0-27.009 1.571-49.099 10.702-65.655 27.14-1.259 1.25-1.996 2.933-2.06 4.707-.428 11.83.642 23.028 3.208 33.636h-17.102v-70.304c0-21.98 17.882-39.863 39.862-39.863h84.309c21.98 0 39.862 17.883 39.862 39.863v70.304zm35.139-146.804c19.204 0 34.827 15.636 34.827 34.855v62.043h-55.989v-20.398c0-29.687-24.152-53.839-53.839-53.839h-5.323c6.89-6.095 12.269-13.859 15.477-22.661zm-37.656-86.883c20.093 0 36.439 16.359 36.439 36.468 0 20.093-16.346 36.439-36.439 36.439-8.91 0-17.337-3.19-24.009-9.019-.838-11.694-5.295-22.398-12.269-30.992 1.76-18.639 17.229-32.896 36.278-32.896zm-37.85 66.953c-.002.133.004.265.01.397.002.184.014.365.014.549 0 22.963-18.694 41.645-41.673 41.645-22.963 0-41.645-18.682-41.645-41.645 0-22.979 18.681-41.673 41.645-41.673 22.662 0 41.142 18.185 41.649 40.727zm-157.586-30.485c0-20.108 16.346-36.468 36.439-36.468 19.057 0 34.531 14.269 36.28 32.921-6.955 8.585-11.401 19.273-12.241 30.948-6.653 5.84-15.091 9.038-24.039 9.038-20.093 0-36.439-16.346-36.439-36.439zm-36.043 85.27c0-19.219 15.636-34.855 34.854-34.855h64.845c3.206 8.803 8.582 16.567 15.469 22.661h-5.342c-29.686 0-53.839 24.152-53.839 53.839v20.398h-55.988v-62.043zm181.172 99.433-33.328 38.533c-1.329 1.537-3.26 2.417-5.286 2.417-.07 0-.141-.001-.212-.004-2.102-.063-4.064-1.071-5.341-2.743l-14.456-18.927c-2.342-3.067-1.755-7.453 1.312-9.795 3.066-2.342 7.452-1.755 9.795 1.312l9.24 12.098 27.705-32.033c2.525-2.92 6.94-3.239 9.857-.714 2.919 2.524 3.239 6.937.714 9.856z" fill="#c59c47" fill-opacity="1" data-original-color="#000000ff" stroke="none" stroke-opacity="1"/></g></svg>