<svg id="Layer_2" enable-background="new 0 0 48 48" viewBox="0 0 48 48" xmlns="http://www.w3.org/2000/svg" width="300" height="300" version="1.1" xmlns:xlink="http://www.w3.org/1999/xlink" xmlns:svgjs="http://svgjs.dev/svgjs"><g width="100%" height="100%" transform="matrix(1,0,0,1,0,0)"><g><path d="m43.8 12h-9.8v-7.8c0-1.8-1.4-3.2-3.2-3.2h-13.6c-1.8 0-3.2 1.4-3.2 3.2v7.8h-9.7c-1.8 0-3.3 1.5-3.3 3.3v28.5c0 1.7 1.5 3.2 3.3 3.2h39.5c1.8 0 3.3-1.5 3.3-3.3v-28.4c-.1-1.8-1.6-3.3-3.3-3.3zm-8.1 20c-.4 0-.7-.3-.7-.7v-2.6c0-.4.3-.7.7-.7h4.6c.4 0 .7.3.7.7v2.6c0 .4-.3.7-.7.7zm0-6c-1.5 0-2.7 1.2-2.7 2.7v2.6c0 1.5 1.2 2.7 2.7 2.7h1.3v11h-26v-11h1.3c1.5 0 2.7-1.2 2.7-2.7v-2.6c0-1.5-1.2-2.7-2.7-2.7h-1.3v-12h4 18 4v12zm-23.4 2c.4 0 .7.3.7.7v2.6c0 .4-.3.7-.7.7h-4.6c-.4 0-.7-.3-.7-.7v-2.6c0-.4.3-.7.7-.7zm3.7-23.8c0-.7.5-1.2 1.2-1.2h13.6c.7 0 1.2.5 1.2 1.2v7.8h-16zm-13 39.6v-28.5c0-.7.6-1.3 1.3-1.3h4.7v12h-1.3c-1.5 0-2.7 1.2-2.7 2.7v2.6c0 1.5 1.2 2.7 2.7 2.7h1.3v11h-4.7c-.7 0-1.3-.6-1.3-1.2zm42 0c0 .7-.6 1.3-1.3 1.3h-4.7v-11.1h1.3c1.5 0 2.7-1.2 2.7-2.7v-2.6c0-1.5-1.2-2.7-2.7-2.7h-1.3v-12h4.8c.7 0 1.3.6 1.3 1.3v28.5z" fill="#c59c47" fill-opacity="1" data-original-color="#000000ff" stroke="none" stroke-opacity="1"/></g></g></svg>